<?xml version="1.0" encoding="iso-8859-1"?>
<!-- Generator: Adobe Illustrator 19.0.0, SVG Export Plug-In . SVG Version: 6.00 Build 0)  -->
<svg version="1.1" id="Layer_1" xmlns="http://www.w3.org/2000/svg" xmlns:xlink="http://www.w3.org/1999/xlink" x="0px" y="0px"
	 viewBox="0 0 210.414 210.414" style="enable-background:new 0 0 210.414 210.414;" xml:space="preserve">
<g>
	<g>
		<g>
			<path d="M105.207,0C47.196,0,0,47.196,0,105.207c0,58.011,47.196,105.207,105.207,105.207
				c58.011,0,105.207-47.196,105.207-105.207C210.414,47.196,163.218,0,105.207,0z M105.207,202.621
				c-53.715,0-97.414-43.699-97.414-97.414c0-53.715,43.699-97.414,97.414-97.414c53.715,0,97.414,43.699,97.414,97.414
				C202.621,158.922,158.922,202.621,105.207,202.621z"/>
			<path d="M110.313,104.804l32.09-32.09c1.522-1.522,1.522-3.988,0-5.51c-1.522-1.522-3.988-1.522-5.51,0l-32.09,32.09
				l-32.66-32.659c-1.522-1.522-3.988-1.522-5.51,0c-1.522,1.522-1.522,3.988,0,5.51l32.659,32.659l-34.037,34.037
				c-1.522,1.522-1.522,3.988,0,5.51c0.761,0.761,1.758,1.142,2.755,1.142s1.994-0.381,2.755-1.142l34.037-34.037l33.468,33.468
				c0.761,0.761,1.758,1.142,2.755,1.142s1.994-0.381,2.755-1.142c1.522-1.522,1.522-3.988,0-5.51L110.313,104.804z"/>
		</g>
	</g>
</g>
<g>
</g>
<g>
</g>
<g>
</g>
<g>
</g>
<g>
</g>
<g>
</g>
<g>
</g>
<g>
</g>
<g>
</g>
<g>
</g>
<g>
</g>
<g>
</g>
<g>
</g>
<g>
</g>
<g>
</g>
</svg>
